<?xml version="1.0" standalone="no"?>
<!DOCTYPE svg PUBLIC "-//W3C//DTD SVG 20010904//EN"
 "http://www.w3.org/TR/2001/REC-SVG-20010904/DTD/svg10.dtd">
<svg version="1.0" xmlns="http://www.w3.org/2000/svg"
 width="486.000000pt" height="117.000000pt" viewBox="0 0 486.000000 117.000000"
 preserveAspectRatio="xMidYMid meet">

<g transform="translate(0.000000,117.000000) scale(0.100000,-0.100000)"
fill="#000000" stroke="none">
<path d="M228 855 c-57 -80 -104 -152 -106 -159 -3 -12 353 -366 368 -366 9 0
70 204 70 234 0 13 -15 42 -34 65 -42 50 -40 82 7 78 29 -2 31 1 47 57 20 72
43 91 70 58 11 -13 21 -18 25 -12 11 17 37 11 42 -10 4 -13 14 -20 30 -20 17
0 27 -7 30 -21 3 -11 11 -18 18 -15 7 2 21 -1 30 -8 16 -12 16 -18 -10 -101
-21 -70 -35 -97 -62 -122 -31 -30 -39 -49 -75 -184 l-39 -151 22 -24 c12 -13
27 -24 32 -24 12 0 577 551 577 563 0 5 -48 76 -106 158 l-106 149 -364 0
-363 0 -103 -145z m247 70 c14 -13 25 -35 25 -48 0 -17 10 -29 35 -43 30 -16
35 -23 30 -44 -10 -39 -20 -43 -55 -21 -26 15 -44 18 -81 14 -42 -5 -50 -2
-73 20 -14 14 -26 33 -26 42 0 15 2 15 22 1 33 -24 56 -19 73 14 20 39 19 44
-10 60 -34 18 -32 30 5 30 19 0 40 -9 55 -25z m390 -285 c4 -6 25 -8 54 -4 41
5 51 3 76 -19 64 -54 18 -156 -64 -143 -37 6 -71 36 -71 64 0 8 -7 23 -16 33
-11 12 -14 27 -9 48 7 31 19 39 30 21z"/>
<path d="M893 584 c-15 -24 -15 -28 0 -52 23 -40 76 -42 99 -5 15 26 15 30 0
55 -22 38 -74 39 -99 2z"/>
<path d="M1410 545 l0 -225 55 0 55 0 0 95 c0 52 3 95 6 95 23 0 46 -31 79
-105 l38 -85 59 0 c33 0 58 4 58 10 0 21 -70 157 -90 175 l-20 19 31 32 c39
40 47 95 22 144 -28 54 -70 70 -190 70 l-103 0 0 -225z m180 126 c22 -43 -2
-91 -47 -91 -21 0 -23 4 -23 55 0 54 0 55 30 55 19 0 33 -7 40 -19z"/>
<path d="M1800 545 l0 -225 150 0 150 0 0 40 0 40 -90 0 -90 0 0 55 0 55 64 0
c68 0 76 6 76 56 0 23 -3 24 -70 24 l-70 0 0 50 0 50 85 0 85 0 0 40 0 40
-145 0 -145 0 0 -225z"/>
<path d="M2150 545 l0 -225 60 0 60 0 0 84 0 83 51 6 c100 12 146 64 137 157
-9 92 -57 120 -208 120 l-100 0 0 -225z m178 133 c7 -7 12 -28 12 -48 0 -42
-14 -60 -47 -60 -21 0 -23 4 -23 60 0 56 2 60 23 60 13 0 28 -5 35 -12z"/>
<path d="M2631 748 c-23 -63 -150 -395 -156 -411 -7 -16 -2 -18 51 -15 l58 3
15 48 15 47 72 0 72 0 17 -50 17 -50 54 0 c30 0 54 4 54 8 0 4 -35 104 -78
222 l-79 215 -51 3 c-47 3 -53 1 -61 -20z m75 -160 c9 -29 19 -59 22 -65 3 -9
-9 -13 -40 -13 l-44 0 20 65 c12 36 22 65 23 65 1 0 9 -24 19 -52z"/>
<path d="M2940 545 l0 -225 60 0 60 0 0 95 c0 52 4 95 8 95 17 0 42 -37 76
-113 l35 -77 115 0 114 0 17 50 17 50 73 0 73 0 12 -50 12 -50 60 0 c53 0 59
2 53 18 -4 9 -41 110 -82 225 l-76 207 -51 0 -51 0 -22 -57 c-12 -32 -50 -132
-84 -221 l-62 -164 -24 57 c-30 71 -70 135 -84 135 -6 0 6 15 25 34 32 30 36
39 36 83 0 99 -55 133 -210 133 l-100 0 0 -225z m178 133 c20 -20 15 -76 -7
-88 -42 -22 -51 -14 -51 45 0 51 2 55 23 55 13 0 28 -5 35 -12z m398 -166
c-21 -2 -40 -2 -42 1 -2 2 6 32 18 68 l22 64 20 -65 21 -65 -39 -3z"/>
<path d="M3900 765 c0 -3 29 -64 65 -135 l65 -130 0 -90 0 -90 60 0 60 0 0 85
0 85 70 140 70 140 -60 0 -59 0 -39 -82 -40 -83 -38 83 -38 82 -58 0 c-32 0
-58 -2 -58 -5z"/>
<path d="M4372 553 c-45 -120 -82 -221 -82 -225 0 -5 24 -8 54 -8 l54 0 17 50
17 50 73 0 73 0 12 -50 12 -50 60 0 c53 0 59 2 53 18 -4 9 -41 110 -82 225
l-76 207 -51 0 -51 0 -83 -217z m134 -41 c-21 -2 -40 -2 -42 1 -2 2 6 32 18
68 l22 64 20 -65 21 -65 -39 -3z"/>
</g>
</svg>
