<?xml version="1.0" standalone="no"?>
<!DOCTYPE svg PUBLIC "-//W3C//DTD SVG 20010904//EN"
 "http://www.w3.org/TR/2001/REC-SVG-20010904/DTD/svg10.dtd">
<svg version="1.0" xmlns="http://www.w3.org/2000/svg"
 width="322.000000pt" height="277.000000pt" viewBox="0 0 322.000000 277.000000"
 preserveAspectRatio="xMidYMid meet">

<g transform="translate(0.000000,277.000000) scale(0.100000,-0.100000)"
fill="#000000" stroke="none">
<path d="M0 1385 l0 -1385 1610 0 1610 0 0 1385 0 1385 -1610 0 -1610 0 0
-1385z m660 1069 c29 -29 30 -97 1 -128 -18 -19 -19 -24 -6 -36 8 -8 25 -41
39 -72 l26 -58 -48 1 -47 0 -30 62 c-41 85 -55 85 -55 3 l0 -66 -40 0 -40 0 0
161 0 161 90 -4 c75 -2 93 -6 110 -24z m290 -4 l0 -30 -60 0 -60 0 0 -35 0
-35 50 0 c52 0 53 -1 44 -37 -5 -19 -13 -23 -50 -23 -44 0 -44 0 -44 -35 l0
-35 65 0 65 0 0 -30 0 -30 -110 0 -110 0 0 160 0 160 105 0 105 0 0 -30z m219
15 c34 -17 41 -33 41 -89 0 -56 -31 -86 -94 -93 l-46 -6 0 -58 0 -59 -40 0
-40 0 0 160 0 160 75 0 c47 0 87 -6 104 -15z m301 -137 c30 -83 57 -155 58
-160 2 -4 -16 -8 -41 -8 -41 0 -45 2 -53 33 -9 30 -13 32 -60 35 -50 3 -51 2
-60 -30 -9 -30 -14 -33 -53 -36 -33 -2 -42 0 -39 10 3 7 29 79 59 160 l54 148
40 0 40 0 55 -152z m277 128 c36 -32 39 -93 5 -129 -15 -16 -20 -27 -13 -32 6
-3 24 -32 40 -63 l29 -57 14 35 c8 19 35 88 59 153 l44 117 40 0 c40 0 42 -1
57 -47 8 -27 34 -99 56 -160 l41 -113 -44 0 c-41 0 -44 2 -55 35 -11 34 -14
35 -59 35 -46 0 -49 -2 -57 -32 l-10 -33 -87 -3 -88 -3 -23 54 c-13 29 -31 59
-40 66 -14 12 -16 7 -16 -53 l0 -66 -45 0 -45 0 0 160 0 160 84 0 c75 0 88 -3
113 -24z m600 -32 l25 -56 26 56 c25 56 25 56 68 56 24 0 44 -2 44 -5 0 -3
-22 -50 -50 -105 -42 -84 -50 -109 -50 -155 l0 -55 -40 0 -40 0 0 60 c0 52 -7
73 -50 160 l-50 100 45 0 46 0 26 -56z m413 -96 c30 -83 57 -155 58 -160 2 -4
-16 -8 -41 -8 -41 0 -45 2 -53 33 -9 30 -13 32 -60 35 -50 3 -51 2 -60 -30 -9
-30 -14 -33 -53 -36 -33 -2 -42 0 -39 10 3 7 29 79 59 160 l54 148 40 0 40 0
55 -152z m-198 -708 l217 -305 -177 -175 c-97 -96 -356 -350 -575 -564 l-398
-390 -54 55 -54 54 83 309 82 308 44 31 c51 34 62 46 90 102 20 42 86 257 91
297 7 60 -36 93 -88 69 -22 -10 -25 -9 -19 4 17 46 -43 98 -89 77 -22 -10 -25
-9 -25 10 0 55 -83 81 -114 36 l-16 -22 0 23 c0 54 -77 83 -112 44 -13 -15
-46 -111 -84 -245 -4 -15 -9 -15 -51 4 l-47 21 -18 -23 c-36 -45 -23 -86 58
-171 79 -84 79 -86 -7 -358 l-73 -230 -366 357 c-202 196 -370 362 -373 369
-5 9 271 406 410 591 l24 32 711 -2 712 -3 218 -305z"/>
<path d="M540 2385 c0 -49 15 -59 45 -29 25 25 3 73 -32 74 -9 0 -13 -16 -13
-45z"/>
<path d="M1070 2380 c0 -51 9 -60 39 -41 32 21 12 90 -26 91 -9 0 -13 -17 -13
-50z"/>
<path d="M1361 2345 c-15 -54 -15 -55 14 -55 23 0 25 3 19 28 -16 66 -21 69
-33 27z"/>
<path d="M1640 2385 c0 -25 4 -45 9 -45 14 0 41 30 41 45 0 15 -27 45 -41 45
-5 0 -9 -20 -9 -45z"/>
<path d="M1951 2345 c-6 -16 -14 -36 -16 -42 -3 -9 6 -13 25 -13 33 0 34 1 15
50 l-13 35 -11 -30z"/>
<path d="M2651 2345 c-15 -54 -15 -55 14 -55 23 0 25 3 19 28 -16 66 -21 69
-33 27z"/>
<path d="M1030 1818 c-39 -11 -39 -11 44 -60 28 -17 46 -35 46 -46 0 -10 -14
-44 -31 -75 -23 -43 -36 -57 -53 -57 -12 0 -26 4 -32 8 -5 5 -30 21 -55 35
l-47 27 8 -33 c19 -88 84 -138 177 -139 22 0 53 7 69 15 26 14 31 12 109 -33
l82 -47 22 69 c13 38 21 71 19 72 -1 2 -33 20 -70 40 -60 33 -68 41 -68 67 0
70 -55 138 -128 159 -43 12 -46 11 -92 -2z"/>
<path d="M1920 1238 c0 -1 -9 -34 -19 -71 l-20 -68 35 -21 c25 -14 34 -27 34
-46 0 -43 39 -110 78 -134 27 -16 52 -23 92 -23 72 0 121 30 150 91 70 144
-59 281 -220 233 -34 -10 -42 -9 -84 16 -25 15 -46 25 -46 23z m294 -142 l29
-53 -29 -52 -29 -51 -66 0 -66 0 -27 50 c-30 55 -30 59 9 119 25 41 26 41 88
41 l62 0 29 -54z"/>
</g>
</svg>
