<?xml version="1.0" standalone="no"?>
<!DOCTYPE svg PUBLIC "-//W3C//DTD SVG 20010904//EN"
 "http://www.w3.org/TR/2001/REC-SVG-20010904/DTD/svg10.dtd">
<svg version="1.0" xmlns="http://www.w3.org/2000/svg"
 width="500.000000pt" height="500.000000pt" viewBox="0 0 500.000000 500.000000"
 preserveAspectRatio="xMidYMid meet">

<g transform="translate(0.000000,500.000000) scale(0.100000,-0.100000)"
fill="#000000" stroke="none">
<path d="M360 4306 l0 -296 75 0 75 0 0 125 c0 69 4 125 9 125 26 0 63 -51
106 -144 l48 -106 78 0 c90 0 87 -12 27 120 -22 47 -53 100 -71 118 l-32 33
34 26 c88 69 77 213 -21 265 -38 20 -61 23 -185 26 l-143 4 0 -296z m232 177
c12 -11 18 -30 18 -59 0 -49 -25 -74 -72 -74 l-28 0 0 75 0 75 32 0 c17 0 40
-7 50 -17z"/>
<path d="M880 4305 l0 -295 195 0 195 0 0 55 0 55 -120 0 -120 0 0 70 0 70 84
0 c93 0 88 -4 101 73 l6 37 -96 0 -95 0 0 60 0 60 115 0 115 0 0 55 0 55 -190
0 -190 0 0 -295z"/>
<path d="M1330 4305 l0 -295 75 0 75 0 0 110 0 110 33 0 c52 1 119 19 155 43
89 60 96 210 13 280 -45 38 -90 47 -228 47 l-123 0 0 -295z m220 185 c23 -12
40 -67 33 -104 -7 -32 -38 -56 -75 -56 l-28 0 0 85 c0 85 0 85 26 85 14 0 34
-5 44 -10z"/>
<path d="M1867 4323 c-58 -153 -108 -286 -112 -295 -6 -16 0 -18 67 -18 l74 0
23 70 22 70 93 0 93 0 20 -67 20 -68 76 -3 77 -3 -32 88 c-18 48 -66 180 -108
293 l-75 205 -66 3 -66 3 -106 -278z m223 -60 c0 -2 -25 -3 -55 -3 -30 0 -55
3 -55 7 0 4 12 44 27 90 l27 84 28 -88 c15 -48 28 -89 28 -90z"/>
<path d="M2370 4306 l0 -296 70 0 70 0 0 119 c0 68 4 122 10 126 24 15 55 -23
101 -120 27 -57 49 -109 49 -115 0 -6 53 -10 154 -10 l155 0 22 70 23 70 93 0
92 0 21 -70 21 -70 75 0 c57 0 75 3 71 13 -2 6 -51 139 -108 295 l-103 282
-66 0 -65 0 -110 -290 -110 -290 -46 98 c-25 53 -60 113 -77 133 l-31 36 25
13 c64 35 87 153 41 221 -39 59 -83 74 -239 77 l-138 4 0 -296z m223 181 c10
-6 20 -29 23 -49 5 -30 2 -41 -19 -62 -17 -17 -37 -26 -57 -26 l-30 0 0 75 0
75 33 0 c18 0 41 -6 50 -13z m577 -219 c0 -4 -25 -8 -56 -8 -47 0 -55 3 -50
16 3 9 16 49 29 89 l22 74 28 -82 c15 -44 27 -85 27 -89z"/>
<path d="M3620 4595 c0 -3 41 -86 90 -185 l90 -180 0 -110 0 -110 70 0 70 0 0
105 0 105 95 190 95 190 -75 0 -76 0 -54 -111 -54 -112 -14 34 c-8 19 -31 69
-51 112 l-35 77 -76 0 c-41 0 -75 -2 -75 -5z"/>
<path d="M4347 4593 c-9 -15 -217 -566 -217 -575 0 -5 32 -8 72 -6 l73 3 20
68 20 67 94 -2 94 -3 20 -67 20 -68 73 0 c41 0 74 3 74 6 0 5 -177 492 -207
572 -6 13 -128 18 -136 5z m96 -255 l26 -78 -58 0 -58 0 26 85 c14 46 28 81
32 77 3 -4 18 -42 32 -84z"/>
<path d="M480 3149 c-260 -364 -473 -667 -474 -673 -1 -13 1593 -1571 1608
-1571 5 0 79 214 163 475 146 455 153 478 148 540 -7 94 -39 150 -147 256
-109 106 -149 171 -150 242 0 53 25 114 61 146 21 19 22 19 118 -27 54 -25 99
-44 101 -43 1 2 38 122 81 268 44 146 84 275 91 287 31 58 128 78 200 41 48
-25 70 -56 77 -111 l6 -42 14 27 c18 35 62 56 119 56 83 0 144 -57 144 -134 0
-35 0 -35 28 -20 58 30 155 6 194 -49 17 -24 23 -46 23 -89 0 -54 1 -56 17
-41 10 9 42 18 72 21 93 8 146 -39 146 -131 0 -59 -161 -603 -205 -693 -47
-97 -147 -203 -228 -244 l-62 -31 -177 -662 c-97 -364 -177 -669 -178 -678 0
-9 52 -65 115 -124 l116 -108 26 24 c124 112 2468 2407 2467 2415 -1 7 -214
309 -475 673 l-473 661 -1547 0 -1547 0 -472 -661z m952 421 c149 -57 239
-184 252 -354 l4 -50 143 -84 c79 -46 146 -85 147 -87 5 -4 -88 -287 -97 -297
-3 -4 -84 38 -179 94 l-173 101 -61 -29 c-55 -26 -71 -29 -167 -29 -97 0 -111
2 -166 29 -113 56 -198 171 -212 285 -4 32 -2 52 3 50 5 -2 66 -37 136 -76 69
-40 132 -73 140 -73 9 0 26 9 40 19 29 23 158 242 158 268 0 35 -30 61 -154
134 -69 40 -123 76 -120 81 11 17 103 37 176 37 55 1 93 -5 130 -19z m1827
-1323 l93 -55 32 18 c180 105 425 31 517 -156 59 -119 51 -261 -21 -372 -71
-111 -180 -167 -320 -166 -74 0 -93 4 -152 32 -122 59 -197 168 -215 314 l-8
62 -62 36 c-34 19 -65 38 -68 42 -3 3 12 74 35 157 22 84 40 154 40 157 0 6
11 0 129 -69z"/>
<path d="M3367 2004 l-67 -116 56 -101 c82 -148 66 -137 214 -137 l127 0 67
114 c36 62 66 117 66 122 0 5 -28 59 -63 119 l-63 110 -134 3 -135 3 -68 -117z"/>
</g>
</svg>
